<mxfile host="Electron" modified="2024-06-09T21:02:46.187Z" agent="Mozilla/5.0 (Windows NT 10.0; Win64; x64) AppleWebKit/537.36 (KHTML, like Gecko) draw.io/24.5.1 Chrome/124.0.6367.207 Electron/30.0.6 Safari/537.36" etag="hENfG-scMqexzebm_nma" version="24.5.1" type="device">
  <diagram name="Página-1" id="PrR4gcJHDQbpxKkW_ofY">
    <mxGraphModel dx="1420" dy="830" grid="1" gridSize="10" guides="1" tooltips="1" connect="1" arrows="1" fold="1" page="1" pageScale="1" pageWidth="827" pageHeight="1169" background="#CCE5FF" math="0" shadow="0">
      <root>
        <mxCell id="0" />
        <mxCell id="1" parent="0" />
        <mxCell id="2o_OjBHsZXvBOZo_V1j--1" value="&lt;b style=&quot;font-size: 15px;&quot;&gt;&lt;font style=&quot;font-size: 15px;&quot; color=&quot;#000000&quot; face=&quot;Comic Sans MS&quot;&gt;11 Dada una lista de 10 números, cargarlos en un vector. Luego ingresar un número e informar el primer índice donde ese número aparece en el vector. En caso de no aparecer se mostrará el valor índice igual a -1.&lt;/font&gt;&lt;/b&gt;" style="text;whiteSpace=wrap;html=1;fontFamily=Architects Daughter;fontSource=https%3A%2F%2Ffonts.googleapis.com%2Fcss%3Ffamily%3DArchitects%2BDaughter;" vertex="1" parent="1">
          <mxGeometry x="44" y="20" width="740" height="70" as="geometry" />
        </mxCell>
        <mxCell id="2o_OjBHsZXvBOZo_V1j--143" value="" style="group;aspect=fixed;" vertex="1" connectable="0" parent="1">
          <mxGeometry x="99" y="130" width="510.23" height="1295.42" as="geometry" />
        </mxCell>
        <mxCell id="2o_OjBHsZXvBOZo_V1j--2" value="" style="group;aspect=fixed;" vertex="1" connectable="0" parent="2o_OjBHsZXvBOZo_V1j--143">
          <mxGeometry x="281" width="50" height="50" as="geometry" />
        </mxCell>
        <mxCell id="2o_OjBHsZXvBOZo_V1j--3" value="" style="strokeWidth=2;html=1;shape=mxgraph.flowchart.start_2;whiteSpace=wrap;rounded=0;labelBackgroundColor=none;strokeColor=#000000;align=center;verticalAlign=middle;fontFamily=Helvetica;fontSize=12;fontColor=default;fillColor=#d5e8d4;aspect=fixed;" vertex="1" parent="2o_OjBHsZXvBOZo_V1j--2">
          <mxGeometry width="50" height="50" as="geometry" />
        </mxCell>
        <mxCell id="2o_OjBHsZXvBOZo_V1j--4" value="&lt;b&gt;&lt;font color=&quot;#000000&quot; style=&quot;font-size: 19px;&quot; face=&quot;Comic Sans MS&quot;&gt;I&lt;/font&gt;&lt;/b&gt;" style="text;strokeColor=none;align=center;fillColor=none;html=1;verticalAlign=middle;whiteSpace=wrap;rounded=0;fontFamily=Architects Daughter;fontSource=https://fonts.googleapis.com/css?family=Architects+Daughter;aspect=fixed;" vertex="1" parent="2o_OjBHsZXvBOZo_V1j--2">
          <mxGeometry x="5" y="10" width="40" height="30" as="geometry" />
        </mxCell>
        <mxCell id="2o_OjBHsZXvBOZo_V1j--12" value="" style="group;aspect=fixed;" vertex="1" connectable="0" parent="2o_OjBHsZXvBOZo_V1j--143">
          <mxGeometry x="103" y="230" width="322" height="250" as="geometry" />
        </mxCell>
        <mxCell id="2o_OjBHsZXvBOZo_V1j--13" value="" style="whiteSpace=wrap;html=1;aspect=fixed;rounded=0;labelBackgroundColor=none;strokeColor=#000000;strokeWidth=2;align=center;verticalAlign=middle;fontFamily=Helvetica;fontSize=12;fontColor=default;fillColor=#d5e8d4;" vertex="1" parent="2o_OjBHsZXvBOZo_V1j--12">
          <mxGeometry x="72" width="250" height="250" as="geometry" />
        </mxCell>
        <mxCell id="2o_OjBHsZXvBOZo_V1j--14" value="" style="group;aspect=fixed;" vertex="1" connectable="0" parent="2o_OjBHsZXvBOZo_V1j--12">
          <mxGeometry y="22" width="149" height="140" as="geometry" />
        </mxCell>
        <mxCell id="2o_OjBHsZXvBOZo_V1j--15" value="" style="ellipse;whiteSpace=wrap;html=1;aspect=fixed;rounded=0;labelBackgroundColor=none;strokeColor=#0F140C;strokeWidth=3;align=center;verticalAlign=middle;fontFamily=Helvetica;fontSize=12;fontColor=default;fillColor=#d5e8d4;container=0;" vertex="1" parent="2o_OjBHsZXvBOZo_V1j--14">
          <mxGeometry x="5" width="140" height="140" as="geometry" />
        </mxCell>
        <mxCell id="2o_OjBHsZXvBOZo_V1j--16" value="" style="endArrow=none;html=1;rounded=0;strokeColor=#0F140C;fontFamily=Helvetica;fontSize=12;fontColor=default;fillColor=#B2C9AB;strokeWidth=2;" edge="1" parent="2o_OjBHsZXvBOZo_V1j--14">
          <mxGeometry width="50" height="50" relative="1" as="geometry">
            <mxPoint x="139.4" y="39.19999999999999" as="sourcePoint" />
            <mxPoint x="10.600000000000001" y="39.19999999999999" as="targetPoint" />
          </mxGeometry>
        </mxCell>
        <mxCell id="2o_OjBHsZXvBOZo_V1j--17" value="" style="endArrow=none;html=1;rounded=0;strokeColor=#0F140C;fontFamily=Helvetica;fontSize=12;fontColor=default;fillColor=#B2C9AB;exitX=0.264;exitY=0.952;exitDx=0;exitDy=0;exitPerimeter=0;strokeWidth=2;" edge="1" parent="2o_OjBHsZXvBOZo_V1j--14" source="2o_OjBHsZXvBOZo_V1j--15">
          <mxGeometry width="50" height="50" relative="1" as="geometry">
            <mxPoint x="38.6" y="84" as="sourcePoint" />
            <mxPoint x="44.2" y="39.19999999999999" as="targetPoint" />
          </mxGeometry>
        </mxCell>
        <mxCell id="2o_OjBHsZXvBOZo_V1j--18" value="" style="endArrow=none;html=1;rounded=0;strokeColor=#0F140C;fontFamily=Helvetica;fontSize=12;fontColor=default;fillColor=#B2C9AB;exitX=0.728;exitY=0.948;exitDx=0;exitDy=0;exitPerimeter=0;strokeWidth=2;" edge="1" parent="2o_OjBHsZXvBOZo_V1j--14" source="2o_OjBHsZXvBOZo_V1j--15">
          <mxGeometry width="50" height="50" relative="1" as="geometry">
            <mxPoint x="89.00000000000001" y="95.20000000000005" as="sourcePoint" />
            <mxPoint x="106.92000000000002" y="39.19999999999999" as="targetPoint" />
          </mxGeometry>
        </mxCell>
        <mxCell id="2o_OjBHsZXvBOZo_V1j--19" value="&lt;font face=&quot;Comic Sans MS&quot; color=&quot;#000000&quot;&gt;&lt;span style=&quot;font-size: 13px;&quot;&gt;&lt;b&gt;x&lt;/b&gt;&lt;/span&gt;&lt;/font&gt;" style="text;strokeColor=none;align=center;fillColor=none;html=1;verticalAlign=middle;whiteSpace=wrap;rounded=0;fontFamily=Architects Daughter;fontSource=https://fonts.googleapis.com/css?family=Architects+Daughter;container=0;" vertex="1" parent="2o_OjBHsZXvBOZo_V1j--14">
          <mxGeometry x="48" y="10" width="50" height="30" as="geometry" />
        </mxCell>
        <mxCell id="2o_OjBHsZXvBOZo_V1j--20" value="&lt;font color=&quot;#000000&quot; size=&quot;1&quot; face=&quot;Comic Sans MS&quot;&gt;&lt;b style=&quot;font-size: 13px;&quot;&gt;x++&lt;/b&gt;&lt;/font&gt;" style="text;strokeColor=none;align=center;fillColor=none;html=1;verticalAlign=middle;whiteSpace=wrap;rounded=0;fontFamily=Architects Daughter;fontSource=https://fonts.googleapis.com/css?family=Architects+Daughter;container=0;" vertex="1" parent="2o_OjBHsZXvBOZo_V1j--14">
          <mxGeometry x="99" y="63" width="50" height="30" as="geometry" />
        </mxCell>
        <mxCell id="2o_OjBHsZXvBOZo_V1j--21" value="&lt;font color=&quot;#000000&quot; size=&quot;1&quot; face=&quot;Comic Sans MS&quot;&gt;&lt;b style=&quot;font-size: 13px;&quot;&gt;x &amp;lt; 10&lt;/b&gt;&lt;/font&gt;" style="text;strokeColor=none;align=center;fillColor=none;html=1;verticalAlign=middle;whiteSpace=wrap;rounded=0;fontFamily=Architects Daughter;fontSource=https://fonts.googleapis.com/css?family=Architects+Daughter;container=0;" vertex="1" parent="2o_OjBHsZXvBOZo_V1j--14">
          <mxGeometry x="44" y="63" width="60" height="30" as="geometry" />
        </mxCell>
        <mxCell id="2o_OjBHsZXvBOZo_V1j--22" value="&lt;font color=&quot;#000000&quot; size=&quot;1&quot; face=&quot;Comic Sans MS&quot;&gt;&lt;b style=&quot;font-size: 13px;&quot;&gt;x = 0&lt;/b&gt;&lt;/font&gt;" style="text;strokeColor=none;align=center;fillColor=none;html=1;verticalAlign=middle;whiteSpace=wrap;rounded=0;fontFamily=Architects Daughter;fontSource=https://fonts.googleapis.com/css?family=Architects+Daughter;container=0;" vertex="1" parent="2o_OjBHsZXvBOZo_V1j--14">
          <mxGeometry y="63" width="50" height="30" as="geometry" />
        </mxCell>
        <mxCell id="2o_OjBHsZXvBOZo_V1j--23" value="" style="group;aspect=fixed;" vertex="1" connectable="0" parent="2o_OjBHsZXvBOZo_V1j--12">
          <mxGeometry x="167" y="67" width="120" height="40" as="geometry" />
        </mxCell>
        <mxCell id="2o_OjBHsZXvBOZo_V1j--24" value="" style="shape=trapezoid;perimeter=trapezoidPerimeter;whiteSpace=wrap;html=1;fixedSize=1;rounded=0;labelBackgroundColor=none;strokeColor=#121211;strokeWidth=2;align=center;verticalAlign=middle;fontFamily=Helvetica;fontSize=12;fontColor=default;fillColor=#d5e8d4;direction=west;container=0;" vertex="1" parent="2o_OjBHsZXvBOZo_V1j--23">
          <mxGeometry width="120" height="40" as="geometry">
            <mxRectangle x="-1020" y="-650" width="50" height="40" as="alternateBounds" />
          </mxGeometry>
        </mxCell>
        <mxCell id="2o_OjBHsZXvBOZo_V1j--25" value="&lt;font size=&quot;1&quot; face=&quot;Comic Sans MS&quot; color=&quot;#000000&quot;&gt;&lt;b style=&quot;font-size: 16px;&quot;&gt;num&lt;/b&gt;&lt;/font&gt;" style="text;strokeColor=none;align=center;fillColor=none;html=1;verticalAlign=middle;whiteSpace=wrap;rounded=0;fontFamily=Architects Daughter;fontSource=https://fonts.googleapis.com/css?family=Architects+Daughter;container=0;" vertex="1" parent="2o_OjBHsZXvBOZo_V1j--23">
          <mxGeometry x="20" y="5" width="80" height="30" as="geometry" />
        </mxCell>
        <mxCell id="2o_OjBHsZXvBOZo_V1j--26" value="" style="group;aspect=fixed;" vertex="1" connectable="0" parent="2o_OjBHsZXvBOZo_V1j--12">
          <mxGeometry x="137" y="138" width="180" height="40" as="geometry" />
        </mxCell>
        <mxCell id="2o_OjBHsZXvBOZo_V1j--27" value="" style="rounded=0;whiteSpace=wrap;html=1;labelBackgroundColor=none;strokeColor=#0f100e;strokeWidth=2;align=center;verticalAlign=middle;fontFamily=Helvetica;fontSize=12;fontColor=default;fillColor=#d5e8d4;" vertex="1" parent="2o_OjBHsZXvBOZo_V1j--26">
          <mxGeometry x="9" width="160" height="40" as="geometry" />
        </mxCell>
        <mxCell id="2o_OjBHsZXvBOZo_V1j--28" value="&lt;font size=&quot;1&quot; face=&quot;Comic Sans MS&quot; color=&quot;#000000&quot;&gt;&lt;b style=&quot;font-size: 16px;&quot;&gt;vector[x] = num&lt;/b&gt;&lt;/font&gt;" style="text;strokeColor=none;align=center;fillColor=none;html=1;verticalAlign=middle;whiteSpace=wrap;rounded=0;fontFamily=Architects Daughter;fontSource=https://fonts.googleapis.com/css?family=Architects+Daughter;" vertex="1" parent="2o_OjBHsZXvBOZo_V1j--26">
          <mxGeometry y="6" width="180" height="30" as="geometry" />
        </mxCell>
        <mxCell id="2o_OjBHsZXvBOZo_V1j--29" value="" style="line;strokeWidth=2;direction=south;html=1;hachureGap=4;fontFamily=Architects Daughter;fontSource=https://fonts.googleapis.com/css?family=Architects+Daughter;strokeColor=#000000;" vertex="1" parent="2o_OjBHsZXvBOZo_V1j--12">
          <mxGeometry x="219" y="108" width="10" height="30" as="geometry" />
        </mxCell>
        <mxCell id="2o_OjBHsZXvBOZo_V1j--30" value="" style="line;strokeWidth=2;direction=south;html=1;hachureGap=4;fontFamily=Architects Daughter;fontSource=https://fonts.googleapis.com/css?family=Architects+Daughter;strokeColor=#000000;" vertex="1" parent="2o_OjBHsZXvBOZo_V1j--143">
          <mxGeometry x="301" y="182" width="10" height="50" as="geometry" />
        </mxCell>
        <mxCell id="2o_OjBHsZXvBOZo_V1j--31" value="" style="line;strokeWidth=2;direction=south;html=1;hachureGap=4;fontFamily=Architects Daughter;fontSource=https://fonts.googleapis.com/css?family=Architects+Daughter;strokeColor=#000000;" vertex="1" parent="2o_OjBHsZXvBOZo_V1j--143">
          <mxGeometry x="301" y="50" width="10" height="30" as="geometry" />
        </mxCell>
        <mxCell id="2o_OjBHsZXvBOZo_V1j--32" value="" style="line;strokeWidth=2;direction=south;html=1;hachureGap=4;fontFamily=Architects Daughter;fontSource=https://fonts.googleapis.com/css?family=Architects+Daughter;strokeColor=#000000;" vertex="1" parent="2o_OjBHsZXvBOZo_V1j--143">
          <mxGeometry x="301" y="113" width="10" height="36" as="geometry" />
        </mxCell>
        <mxCell id="2o_OjBHsZXvBOZo_V1j--33" value="" style="line;strokeWidth=2;direction=south;html=1;hachureGap=4;fontFamily=Architects Daughter;fontSource=https://fonts.googleapis.com/css?family=Architects+Daughter;strokeColor=#000000;" vertex="1" parent="2o_OjBHsZXvBOZo_V1j--143">
          <mxGeometry x="300" y="480" width="10" height="40" as="geometry" />
        </mxCell>
        <mxCell id="2o_OjBHsZXvBOZo_V1j--34" value="" style="group;aspect=fixed;" vertex="1" connectable="0" parent="2o_OjBHsZXvBOZo_V1j--143">
          <mxGeometry x="240" y="80" width="130" height="40" as="geometry" />
        </mxCell>
        <mxCell id="2o_OjBHsZXvBOZo_V1j--7" value="" style="rounded=0;whiteSpace=wrap;html=1;labelBackgroundColor=none;strokeColor=#0f100e;strokeWidth=2;align=center;verticalAlign=middle;fontFamily=Helvetica;fontSize=12;fontColor=default;fillColor=#d5e8d4;container=0;" vertex="1" parent="2o_OjBHsZXvBOZo_V1j--34">
          <mxGeometry width="130" height="40" as="geometry" />
        </mxCell>
        <mxCell id="2o_OjBHsZXvBOZo_V1j--8" value="&lt;font color=&quot;#000000&quot; face=&quot;Comic Sans MS&quot;&gt;&lt;span style=&quot;font-size: 15px;&quot;&gt;&lt;b&gt;int vector[10]&lt;/b&gt;&lt;/span&gt;&lt;/font&gt;" style="text;strokeColor=none;align=center;fillColor=none;html=1;verticalAlign=middle;whiteSpace=wrap;rounded=0;fontFamily=Architects Daughter;fontSource=https://fonts.googleapis.com/css?family=Architects+Daughter;container=0;" vertex="1" parent="2o_OjBHsZXvBOZo_V1j--34">
          <mxGeometry x="4" y="6" width="120" height="30" as="geometry" />
        </mxCell>
        <mxCell id="2o_OjBHsZXvBOZo_V1j--36" value="" style="group;aspect=fixed;" vertex="1" connectable="0" parent="2o_OjBHsZXvBOZo_V1j--143">
          <mxGeometry x="186" y="149" width="240" height="50" as="geometry" />
        </mxCell>
        <mxCell id="2o_OjBHsZXvBOZo_V1j--10" value="" style="rounded=0;whiteSpace=wrap;html=1;labelBackgroundColor=none;strokeColor=#0f100e;strokeWidth=2;align=center;verticalAlign=middle;fontFamily=Helvetica;fontSize=12;fontColor=default;fillColor=#d5e8d4;" vertex="1" parent="2o_OjBHsZXvBOZo_V1j--36">
          <mxGeometry x="16" y="0.5" width="210" height="47" as="geometry" />
        </mxCell>
        <mxCell id="2o_OjBHsZXvBOZo_V1j--35" value="&lt;font face=&quot;Comic Sans MS&quot; color=&quot;#000000&quot;&gt;&lt;span style=&quot;font-size: 15px;&quot;&gt;&lt;b&gt;int num, x = 0, numero = 0&lt;/b&gt;&lt;/span&gt;&lt;/font&gt;&lt;div&gt;&lt;font face=&quot;Comic Sans MS&quot; color=&quot;#000000&quot;&gt;&lt;span style=&quot;font-size: 15px;&quot;&gt;&lt;b&gt;int indice = 0, con = 0&lt;/b&gt;&lt;/span&gt;&lt;/font&gt;&lt;/div&gt;" style="text;strokeColor=none;align=center;fillColor=none;html=1;verticalAlign=middle;whiteSpace=wrap;rounded=0;fontFamily=Architects Daughter;fontSource=https://fonts.googleapis.com/css?family=Architects+Daughter;" vertex="1" parent="2o_OjBHsZXvBOZo_V1j--36">
          <mxGeometry width="240" height="50" as="geometry" />
        </mxCell>
        <mxCell id="2o_OjBHsZXvBOZo_V1j--40" value="" style="group;aspect=fixed;" vertex="1" connectable="0" parent="2o_OjBHsZXvBOZo_V1j--143">
          <mxGeometry x="235" y="520" width="140" height="40" as="geometry" />
        </mxCell>
        <mxCell id="2o_OjBHsZXvBOZo_V1j--38" value="" style="shape=trapezoid;perimeter=trapezoidPerimeter;whiteSpace=wrap;html=1;fixedSize=1;rounded=0;labelBackgroundColor=none;strokeColor=#121211;strokeWidth=2;align=center;verticalAlign=middle;fontFamily=Helvetica;fontSize=12;fontColor=default;fillColor=#d5e8d4;direction=west;container=0;" vertex="1" parent="2o_OjBHsZXvBOZo_V1j--40">
          <mxGeometry width="140" height="40" as="geometry">
            <mxRectangle x="-1020" y="-650" width="50" height="40" as="alternateBounds" />
          </mxGeometry>
        </mxCell>
        <mxCell id="2o_OjBHsZXvBOZo_V1j--39" value="&lt;font size=&quot;1&quot; face=&quot;Comic Sans MS&quot; color=&quot;#000000&quot;&gt;&lt;b style=&quot;font-size: 16px;&quot;&gt;numero&lt;/b&gt;&lt;/font&gt;" style="text;strokeColor=none;align=center;fillColor=none;html=1;verticalAlign=middle;whiteSpace=wrap;rounded=0;fontFamily=Architects Daughter;fontSource=https://fonts.googleapis.com/css?family=Architects+Daughter;container=0;" vertex="1" parent="2o_OjBHsZXvBOZo_V1j--40">
          <mxGeometry x="29" y="5" width="80" height="30" as="geometry" />
        </mxCell>
        <mxCell id="2o_OjBHsZXvBOZo_V1j--75" value="" style="line;strokeWidth=2;direction=south;html=1;hachureGap=4;fontFamily=Architects Daughter;fontSource=https://fonts.googleapis.com/css?family=Architects+Daughter;strokeColor=#000000;container=0;" vertex="1" parent="2o_OjBHsZXvBOZo_V1j--143">
          <mxGeometry x="299.07000000000005" y="560" width="10.93" height="40" as="geometry" />
        </mxCell>
        <mxCell id="2o_OjBHsZXvBOZo_V1j--102" value="" style="line;strokeWidth=2;html=1;perimeter=backbonePerimeter;points=[];outlineConnect=0;hachureGap=4;fontFamily=Architects Daughter;fontSource=https://fonts.googleapis.com/css?family=Architects+Daughter;strokeColor=#000000;container=0;" vertex="1" parent="2o_OjBHsZXvBOZo_V1j--143">
          <mxGeometry x="358.03" y="1079.07" width="52.97" height="10.93" as="geometry" />
        </mxCell>
        <mxCell id="2o_OjBHsZXvBOZo_V1j--109" value="" style="line;strokeWidth=2;direction=south;html=1;hachureGap=4;fontFamily=Architects Daughter;fontSource=https://fonts.googleapis.com/css?family=Architects+Daughter;strokeColor=#000000;container=0;" vertex="1" parent="2o_OjBHsZXvBOZo_V1j--143">
          <mxGeometry x="403.88" y="1083.05" width="10.93" height="46.95" as="geometry" />
        </mxCell>
        <mxCell id="2o_OjBHsZXvBOZo_V1j--114" value="" style="group;aspect=fixed;" vertex="1" connectable="0" parent="2o_OjBHsZXvBOZo_V1j--143">
          <mxGeometry y="590" width="510.2276452376616" height="448" as="geometry" />
        </mxCell>
        <mxCell id="2o_OjBHsZXvBOZo_V1j--41" value="" style="group;aspect=fixed;" vertex="1" connectable="0" parent="2o_OjBHsZXvBOZo_V1j--114">
          <mxGeometry width="510.22764523766165" height="412.5799999999999" as="geometry" />
        </mxCell>
        <mxCell id="2o_OjBHsZXvBOZo_V1j--42" value="" style="whiteSpace=wrap;html=1;aspect=fixed;rounded=0;labelBackgroundColor=none;strokeColor=#000000;strokeWidth=2;align=center;verticalAlign=middle;fontFamily=Helvetica;fontSize=12;fontColor=default;fillColor=#d5e8d4;container=0;" vertex="1" parent="2o_OjBHsZXvBOZo_V1j--41">
          <mxGeometry x="97.64764523766166" width="412.58" height="412.58" as="geometry" />
        </mxCell>
        <mxCell id="2o_OjBHsZXvBOZo_V1j--43" value="" style="line;strokeWidth=2;html=1;perimeter=backbonePerimeter;points=[];outlineConnect=0;hachureGap=4;fontFamily=Architects Daughter;fontSource=https://fonts.googleapis.com/css?family=Architects+Daughter;strokeColor=#000000;container=0;" vertex="1" parent="2o_OjBHsZXvBOZo_V1j--41">
          <mxGeometry x="257.29404480058287" y="82.53319999999997" width="30.202148971043528" height="10.926857142857143" as="geometry" />
        </mxCell>
        <mxCell id="2o_OjBHsZXvBOZo_V1j--44" value="" style="line;strokeWidth=2;html=1;perimeter=backbonePerimeter;points=[];outlineConnect=0;hachureGap=4;fontFamily=Architects Daughter;fontSource=https://fonts.googleapis.com/css?family=Architects+Daughter;strokeColor=#000000;container=0;" vertex="1" parent="2o_OjBHsZXvBOZo_V1j--41">
          <mxGeometry x="384.5014277909307" y="82.53319999999997" width="37.545073757057004" height="10.926857142857143" as="geometry" />
        </mxCell>
        <mxCell id="2o_OjBHsZXvBOZo_V1j--45" value="" style="ellipse;whiteSpace=wrap;html=1;aspect=fixed;rounded=0;labelBackgroundColor=none;strokeColor=#0F140C;strokeWidth=3;align=center;verticalAlign=middle;fontFamily=Helvetica;fontSize=12;fontColor=default;fillColor=#d5e8d4;container=0;" vertex="1" parent="2o_OjBHsZXvBOZo_V1j--41">
          <mxGeometry x="6.774651428571431" y="29.808466285714303" width="189.69024" height="189.69024" as="geometry" />
        </mxCell>
        <mxCell id="2o_OjBHsZXvBOZo_V1j--46" value="" style="endArrow=none;html=1;rounded=0;strokeColor=#0F140C;fontFamily=Helvetica;fontSize=12;fontColor=default;fillColor=#B2C9AB;strokeWidth=2;" edge="1" parent="2o_OjBHsZXvBOZo_V1j--41">
          <mxGeometry width="50" height="50" relative="1" as="geometry">
            <mxPoint x="188.87728182857143" y="82.9217334857143" as="sourcePoint" />
            <mxPoint x="14.362261028571425" y="82.9217334857143" as="targetPoint" />
          </mxGeometry>
        </mxCell>
        <mxCell id="2o_OjBHsZXvBOZo_V1j--47" value="" style="endArrow=none;html=1;rounded=0;strokeColor=#0F140C;fontFamily=Helvetica;fontSize=12;fontColor=default;fillColor=#B2C9AB;exitX=0.264;exitY=0.952;exitDx=0;exitDy=0;exitPerimeter=0;strokeWidth=2;" edge="1" parent="2o_OjBHsZXvBOZo_V1j--41" source="2o_OjBHsZXvBOZo_V1j--45">
          <mxGeometry width="50" height="50" relative="1" as="geometry">
            <mxPoint x="52.30030902857145" y="143.62261028571425" as="sourcePoint" />
            <mxPoint x="59.88791862857141" y="82.9217334857143" as="targetPoint" />
          </mxGeometry>
        </mxCell>
        <mxCell id="2o_OjBHsZXvBOZo_V1j--48" value="" style="endArrow=none;html=1;rounded=0;strokeColor=#0F140C;fontFamily=Helvetica;fontSize=12;fontColor=default;fillColor=#B2C9AB;exitX=0.728;exitY=0.948;exitDx=0;exitDy=0;exitPerimeter=0;strokeWidth=2;" edge="1" parent="2o_OjBHsZXvBOZo_V1j--41" source="2o_OjBHsZXvBOZo_V1j--45">
          <mxGeometry width="50" height="50" relative="1" as="geometry">
            <mxPoint x="120.58879542857147" y="158.79782948571437" as="sourcePoint" />
            <mxPoint x="144.86914614857147" y="82.9217334857143" as="targetPoint" />
          </mxGeometry>
        </mxCell>
        <mxCell id="2o_OjBHsZXvBOZo_V1j--49" value="&lt;font face=&quot;Comic Sans MS&quot; color=&quot;#000000&quot;&gt;&lt;span style=&quot;font-size: 13px;&quot;&gt;&lt;b&gt;x&lt;/b&gt;&lt;/span&gt;&lt;/font&gt;" style="text;strokeColor=none;align=center;fillColor=none;html=1;verticalAlign=middle;whiteSpace=wrap;rounded=0;fontFamily=Architects Daughter;fontSource=https://fonts.googleapis.com/css?family=Architects+Daughter;container=0;" vertex="1" parent="2o_OjBHsZXvBOZo_V1j--41">
          <mxGeometry x="65.0366537142857" y="43.35776914285714" width="67.74651428571428" height="40.64790857142857" as="geometry" />
        </mxCell>
        <mxCell id="2o_OjBHsZXvBOZo_V1j--50" value="&lt;font color=&quot;#000000&quot; size=&quot;1&quot; face=&quot;Comic Sans MS&quot;&gt;&lt;b style=&quot;font-size: 13px;&quot;&gt;x++&lt;/b&gt;&lt;/font&gt;" style="text;strokeColor=none;align=center;fillColor=none;html=1;verticalAlign=middle;whiteSpace=wrap;rounded=0;fontFamily=Architects Daughter;fontSource=https://fonts.googleapis.com/css?family=Architects+Daughter;container=0;" vertex="1" parent="2o_OjBHsZXvBOZo_V1j--41">
          <mxGeometry x="134.1380982857143" y="115.16907428571426" width="67.74651428571428" height="40.64790857142857" as="geometry" />
        </mxCell>
        <mxCell id="2o_OjBHsZXvBOZo_V1j--51" value="&lt;font color=&quot;#000000&quot; size=&quot;1&quot; face=&quot;Comic Sans MS&quot;&gt;&lt;b style=&quot;font-size: 13px;&quot;&gt;x &amp;lt; 10&lt;/b&gt;&lt;/font&gt;" style="text;strokeColor=none;align=center;fillColor=none;html=1;verticalAlign=middle;whiteSpace=wrap;rounded=0;fontFamily=Architects Daughter;fontSource=https://fonts.googleapis.com/css?family=Architects+Daughter;container=0;" vertex="1" parent="2o_OjBHsZXvBOZo_V1j--41">
          <mxGeometry x="59.61693257142855" y="115.16907428571426" width="81.29581714285715" height="40.64790857142857" as="geometry" />
        </mxCell>
        <mxCell id="2o_OjBHsZXvBOZo_V1j--52" value="&lt;font color=&quot;#000000&quot; size=&quot;1&quot; face=&quot;Comic Sans MS&quot;&gt;&lt;b style=&quot;font-size: 13px;&quot;&gt;x = 0&lt;/b&gt;&lt;/font&gt;" style="text;strokeColor=none;align=center;fillColor=none;html=1;verticalAlign=middle;whiteSpace=wrap;rounded=0;fontFamily=Architects Daughter;fontSource=https://fonts.googleapis.com/css?family=Architects+Daughter;container=0;" vertex="1" parent="2o_OjBHsZXvBOZo_V1j--41">
          <mxGeometry y="115.16907428571426" width="67.74651428571428" height="40.64790857142857" as="geometry" />
        </mxCell>
        <mxCell id="2o_OjBHsZXvBOZo_V1j--56" value="" style="group;aspect=fixed;" vertex="1" connectable="0" parent="2o_OjBHsZXvBOZo_V1j--41">
          <mxGeometry x="287.5" y="48" width="97" height="80" as="geometry" />
        </mxCell>
        <mxCell id="2o_OjBHsZXvBOZo_V1j--57" value="" style="rhombus;whiteSpace=wrap;html=1;rounded=0;labelBackgroundColor=none;strokeColor=#0F140C;strokeWidth=2;align=center;verticalAlign=middle;fontFamily=Helvetica;fontSize=12;fontColor=default;fillColor=#d5e8d4;container=0;" vertex="1" parent="2o_OjBHsZXvBOZo_V1j--56">
          <mxGeometry width="97" height="80" as="geometry" />
        </mxCell>
        <mxCell id="2o_OjBHsZXvBOZo_V1j--58" value="&lt;font size=&quot;1&quot; face=&quot;Comic Sans MS&quot; color=&quot;#000000&quot;&gt;&lt;b style=&quot;font-size: 11px;&quot;&gt;numero&lt;/b&gt;&lt;/font&gt;&lt;div&gt;&lt;font size=&quot;1&quot; face=&quot;Comic Sans MS&quot; color=&quot;#000000&quot;&gt;&lt;b style=&quot;font-size: 11px;&quot;&gt;==&lt;/b&gt;&lt;/font&gt;&lt;/div&gt;&lt;div&gt;&lt;font size=&quot;1&quot; face=&quot;Comic Sans MS&quot; color=&quot;#000000&quot;&gt;&lt;b style=&quot;font-size: 11px;&quot;&gt;vector[x]&lt;/b&gt;&lt;/font&gt;&lt;/div&gt;" style="text;strokeColor=none;align=center;fillColor=none;html=1;verticalAlign=middle;whiteSpace=wrap;rounded=0;fontFamily=Architects Daughter;fontSource=https://fonts.googleapis.com/css?family=Architects+Daughter;container=0;" vertex="1" parent="2o_OjBHsZXvBOZo_V1j--56">
          <mxGeometry x="13.5" y="20" width="70" height="40" as="geometry" />
        </mxCell>
        <mxCell id="2o_OjBHsZXvBOZo_V1j--60" value="" style="group;aspect=fixed;" vertex="1" connectable="0" parent="2o_OjBHsZXvBOZo_V1j--41">
          <mxGeometry x="372" y="128" width="97" height="80" as="geometry" />
        </mxCell>
        <mxCell id="2o_OjBHsZXvBOZo_V1j--61" value="" style="rhombus;whiteSpace=wrap;html=1;rounded=0;labelBackgroundColor=none;strokeColor=#0F140C;strokeWidth=2;align=center;verticalAlign=middle;fontFamily=Helvetica;fontSize=12;fontColor=default;fillColor=#d5e8d4;container=0;" vertex="1" parent="2o_OjBHsZXvBOZo_V1j--60">
          <mxGeometry width="97" height="80" as="geometry" />
        </mxCell>
        <mxCell id="2o_OjBHsZXvBOZo_V1j--62" value="&lt;font style=&quot;font-size: 14px;&quot; face=&quot;Comic Sans MS&quot; color=&quot;#000000&quot;&gt;&lt;b style=&quot;&quot;&gt;con&lt;/b&gt;&lt;/font&gt;&lt;div style=&quot;font-size: 14px;&quot;&gt;&lt;font style=&quot;font-size: 14px;&quot; face=&quot;Comic Sans MS&quot; color=&quot;#000000&quot;&gt;&lt;b&gt;==&lt;/b&gt;&lt;/font&gt;&lt;/div&gt;&lt;div style=&quot;font-size: 14px;&quot;&gt;&lt;font style=&quot;font-size: 14px;&quot; face=&quot;Comic Sans MS&quot; color=&quot;#000000&quot;&gt;&lt;b style=&quot;&quot;&gt;0&lt;/b&gt;&lt;/font&gt;&lt;/div&gt;" style="text;strokeColor=none;align=center;fillColor=none;html=1;verticalAlign=middle;whiteSpace=wrap;rounded=0;fontFamily=Architects Daughter;fontSource=https://fonts.googleapis.com/css?family=Architects+Daughter;container=0;" vertex="1" parent="2o_OjBHsZXvBOZo_V1j--60">
          <mxGeometry x="13.5" y="20" width="70" height="40" as="geometry" />
        </mxCell>
        <mxCell id="2o_OjBHsZXvBOZo_V1j--66" value="" style="line;strokeWidth=2;direction=south;html=1;hachureGap=4;fontFamily=Architects Daughter;fontSource=https://fonts.googleapis.com/css?family=Architects+Daughter;strokeColor=#000000;container=0;" vertex="1" parent="2o_OjBHsZXvBOZo_V1j--41">
          <mxGeometry x="252.29" y="86.53" width="10.93" height="43.47" as="geometry" />
        </mxCell>
        <mxCell id="2o_OjBHsZXvBOZo_V1j--67" value="" style="line;strokeWidth=2;direction=south;html=1;hachureGap=4;fontFamily=Architects Daughter;fontSource=https://fonts.googleapis.com/css?family=Architects+Daughter;strokeColor=#000000;container=0;" vertex="1" parent="2o_OjBHsZXvBOZo_V1j--41">
          <mxGeometry x="415.03" y="86.53" width="10.93" height="43.47" as="geometry" />
        </mxCell>
        <mxCell id="2o_OjBHsZXvBOZo_V1j--71" value="" style="line;strokeWidth=2;html=1;perimeter=backbonePerimeter;points=[];outlineConnect=0;hachureGap=4;fontFamily=Architects Daughter;fontSource=https://fonts.googleapis.com/css?family=Architects+Daughter;strokeColor=#000000;container=0;" vertex="1" parent="2o_OjBHsZXvBOZo_V1j--41">
          <mxGeometry x="349" y="161.57" width="23.34" height="10.93" as="geometry" />
        </mxCell>
        <mxCell id="2o_OjBHsZXvBOZo_V1j--72" value="" style="line;strokeWidth=2;html=1;perimeter=backbonePerimeter;points=[];outlineConnect=0;hachureGap=4;fontFamily=Architects Daughter;fontSource=https://fonts.googleapis.com/css?family=Architects+Daughter;strokeColor=#000000;container=0;" vertex="1" parent="2o_OjBHsZXvBOZo_V1j--41">
          <mxGeometry x="469" y="162.52999999999997" width="23.34" height="10.93" as="geometry" />
        </mxCell>
        <mxCell id="2o_OjBHsZXvBOZo_V1j--73" value="" style="line;strokeWidth=2;direction=south;html=1;hachureGap=4;fontFamily=Architects Daughter;fontSource=https://fonts.googleapis.com/css?family=Architects+Daughter;strokeColor=#000000;container=0;" vertex="1" parent="2o_OjBHsZXvBOZo_V1j--41">
          <mxGeometry x="347" y="167.5" width="10.93" height="42.5" as="geometry" />
        </mxCell>
        <mxCell id="2o_OjBHsZXvBOZo_V1j--74" value="" style="line;strokeWidth=2;direction=south;html=1;hachureGap=4;fontFamily=Architects Daughter;fontSource=https://fonts.googleapis.com/css?family=Architects+Daughter;strokeColor=#000000;container=0;" vertex="1" parent="2o_OjBHsZXvBOZo_V1j--41">
          <mxGeometry x="483.41" y="169.5" width="10.93" height="110.5" as="geometry" />
        </mxCell>
        <mxCell id="2o_OjBHsZXvBOZo_V1j--76" value="" style="line;strokeWidth=2;direction=south;html=1;hachureGap=4;fontFamily=Architects Daughter;fontSource=https://fonts.googleapis.com/css?family=Architects+Daughter;strokeColor=#000000;container=0;" vertex="1" parent="2o_OjBHsZXvBOZo_V1j--41">
          <mxGeometry x="349.56" y="240" width="10.93" height="40" as="geometry" />
        </mxCell>
        <mxCell id="2o_OjBHsZXvBOZo_V1j--77" value="" style="line;strokeWidth=2;html=1;perimeter=backbonePerimeter;points=[];outlineConnect=0;hachureGap=4;fontFamily=Architects Daughter;fontSource=https://fonts.googleapis.com/css?family=Architects+Daughter;strokeColor=#000000;container=0;" vertex="1" parent="2o_OjBHsZXvBOZo_V1j--41">
          <mxGeometry x="353.56" y="276" width="136.44" height="10.93" as="geometry" />
        </mxCell>
        <mxCell id="2o_OjBHsZXvBOZo_V1j--78" value="" style="line;strokeWidth=2;direction=south;html=1;hachureGap=4;fontFamily=Architects Daughter;fontSource=https://fonts.googleapis.com/css?family=Architects+Daughter;strokeColor=#000000;container=0;" vertex="1" parent="2o_OjBHsZXvBOZo_V1j--41">
          <mxGeometry x="416.12" y="280" width="10.93" height="90" as="geometry" />
        </mxCell>
        <mxCell id="2o_OjBHsZXvBOZo_V1j--80" value="&lt;font size=&quot;1&quot; face=&quot;Comic Sans MS&quot; color=&quot;#000000&quot;&gt;&lt;b style=&quot;font-size: 15px;&quot;&gt;V&lt;/b&gt;&lt;/font&gt;" style="text;strokeColor=none;align=center;fillColor=none;html=1;verticalAlign=middle;whiteSpace=wrap;rounded=0;fontFamily=Architects Daughter;fontSource=https://fonts.googleapis.com/css?family=Architects+Daughter;container=0;" vertex="1" parent="2o_OjBHsZXvBOZo_V1j--41">
          <mxGeometry x="245" y="62.64999999999998" width="30" height="30" as="geometry" />
        </mxCell>
        <mxCell id="2o_OjBHsZXvBOZo_V1j--81" value="&lt;font size=&quot;1&quot; face=&quot;Comic Sans MS&quot; color=&quot;#000000&quot;&gt;&lt;b style=&quot;font-size: 15px;&quot;&gt;F&lt;/b&gt;&lt;/font&gt;" style="text;strokeColor=none;align=center;fillColor=none;html=1;verticalAlign=middle;whiteSpace=wrap;rounded=0;fontFamily=Architects Daughter;fontSource=https://fonts.googleapis.com/css?family=Architects+Daughter;container=0;" vertex="1" parent="2o_OjBHsZXvBOZo_V1j--41">
          <mxGeometry x="401.05" y="62.52999999999997" width="30" height="30" as="geometry" />
        </mxCell>
        <mxCell id="2o_OjBHsZXvBOZo_V1j--82" value="&lt;font size=&quot;1&quot; face=&quot;Comic Sans MS&quot; color=&quot;#000000&quot;&gt;&lt;b style=&quot;font-size: 15px;&quot;&gt;V&lt;/b&gt;&lt;/font&gt;" style="text;strokeColor=none;align=center;fillColor=none;html=1;verticalAlign=middle;whiteSpace=wrap;rounded=0;fontFamily=Architects Daughter;fontSource=https://fonts.googleapis.com/css?family=Architects+Daughter;container=0;" vertex="1" parent="2o_OjBHsZXvBOZo_V1j--41">
          <mxGeometry x="338.67" y="140.5" width="30" height="30" as="geometry" />
        </mxCell>
        <mxCell id="2o_OjBHsZXvBOZo_V1j--83" value="&lt;font size=&quot;1&quot; face=&quot;Comic Sans MS&quot; color=&quot;#000000&quot;&gt;&lt;b style=&quot;font-size: 15px;&quot;&gt;F&lt;/b&gt;&lt;/font&gt;" style="text;strokeColor=none;align=center;fillColor=none;html=1;verticalAlign=middle;whiteSpace=wrap;rounded=0;fontFamily=Architects Daughter;fontSource=https://fonts.googleapis.com/css?family=Architects+Daughter;container=0;" vertex="1" parent="2o_OjBHsZXvBOZo_V1j--41">
          <mxGeometry x="469" y="144.46000000000004" width="30" height="30" as="geometry" />
        </mxCell>
        <mxCell id="2o_OjBHsZXvBOZo_V1j--92" value="" style="group;aspect=fixed;" vertex="1" connectable="0" parent="2o_OjBHsZXvBOZo_V1j--41">
          <mxGeometry x="216.11" y="131.56999999999994" width="80" height="30" as="geometry" />
        </mxCell>
        <mxCell id="2o_OjBHsZXvBOZo_V1j--89" value="" style="rounded=0;whiteSpace=wrap;html=1;labelBackgroundColor=none;strokeColor=#0f100e;strokeWidth=2;align=center;verticalAlign=middle;fontFamily=Helvetica;fontSize=12;fontColor=default;fillColor=#d5e8d4;container=0;" vertex="1" parent="2o_OjBHsZXvBOZo_V1j--92">
          <mxGeometry width="80" height="30" as="geometry" />
        </mxCell>
        <mxCell id="2o_OjBHsZXvBOZo_V1j--90" value="&lt;font color=&quot;#000000&quot; face=&quot;Comic Sans MS&quot;&gt;&lt;span style=&quot;font-size: 15px;&quot;&gt;&lt;b&gt;con++&lt;/b&gt;&lt;/span&gt;&lt;/font&gt;" style="text;strokeColor=none;align=center;fillColor=none;html=1;verticalAlign=middle;whiteSpace=wrap;rounded=0;fontFamily=Architects Daughter;fontSource=https://fonts.googleapis.com/css?family=Architects+Daughter;container=0;" vertex="1" parent="2o_OjBHsZXvBOZo_V1j--92">
          <mxGeometry x="10" y="5" width="60" height="20" as="geometry" />
        </mxCell>
        <mxCell id="2o_OjBHsZXvBOZo_V1j--59" value="" style="line;strokeWidth=2;direction=south;html=1;hachureGap=4;fontFamily=Architects Daughter;fontSource=https://fonts.googleapis.com/css?family=Architects+Daughter;strokeColor=#000000;container=0;" vertex="1" parent="2o_OjBHsZXvBOZo_V1j--41">
          <mxGeometry x="252.29" y="162.53" width="10.93" height="57.47" as="geometry" />
        </mxCell>
        <mxCell id="2o_OjBHsZXvBOZo_V1j--85" value="" style="group;aspect=fixed;" vertex="1" connectable="0" parent="2o_OjBHsZXvBOZo_V1j--41">
          <mxGeometry x="209.5" y="220" width="97" height="80" as="geometry" />
        </mxCell>
        <mxCell id="2o_OjBHsZXvBOZo_V1j--86" value="" style="rhombus;whiteSpace=wrap;html=1;rounded=0;labelBackgroundColor=none;strokeColor=#0F140C;strokeWidth=2;align=center;verticalAlign=middle;fontFamily=Helvetica;fontSize=12;fontColor=default;fillColor=#d5e8d4;container=0;" vertex="1" parent="2o_OjBHsZXvBOZo_V1j--85">
          <mxGeometry width="97" height="80" as="geometry" />
        </mxCell>
        <mxCell id="2o_OjBHsZXvBOZo_V1j--87" value="&lt;font style=&quot;font-size: 14px;&quot; face=&quot;Comic Sans MS&quot; color=&quot;#000000&quot;&gt;&lt;b style=&quot;&quot;&gt;con&lt;/b&gt;&lt;/font&gt;&lt;div style=&quot;font-size: 14px;&quot;&gt;&lt;font style=&quot;font-size: 14px;&quot; face=&quot;Comic Sans MS&quot; color=&quot;#000000&quot;&gt;&lt;b&gt;==&lt;/b&gt;&lt;/font&gt;&lt;/div&gt;&lt;div style=&quot;font-size: 14px;&quot;&gt;&lt;font face=&quot;Comic Sans MS&quot; color=&quot;#000000&quot;&gt;&lt;b&gt;1&lt;/b&gt;&lt;/font&gt;&lt;/div&gt;" style="text;strokeColor=none;align=center;fillColor=none;html=1;verticalAlign=middle;whiteSpace=wrap;rounded=0;fontFamily=Architects Daughter;fontSource=https://fonts.googleapis.com/css?family=Architects+Daughter;container=0;" vertex="1" parent="2o_OjBHsZXvBOZo_V1j--85">
          <mxGeometry x="13.5" y="20" width="70" height="40" as="geometry" />
        </mxCell>
        <mxCell id="2o_OjBHsZXvBOZo_V1j--97" value="" style="group;aspect=fixed;" vertex="1" connectable="0" parent="2o_OjBHsZXvBOZo_V1j--41">
          <mxGeometry x="306.5" y="208" width="100" height="30" as="geometry" />
        </mxCell>
        <mxCell id="2o_OjBHsZXvBOZo_V1j--94" value="" style="rounded=0;whiteSpace=wrap;html=1;labelBackgroundColor=none;strokeColor=#0f100e;strokeWidth=2;align=center;verticalAlign=middle;fontFamily=Helvetica;fontSize=12;fontColor=default;fillColor=#d5e8d4;container=0;" vertex="1" parent="2o_OjBHsZXvBOZo_V1j--97">
          <mxGeometry width="100" height="30" as="geometry" />
        </mxCell>
        <mxCell id="2o_OjBHsZXvBOZo_V1j--95" value="&lt;font color=&quot;#000000&quot; face=&quot;Comic Sans MS&quot;&gt;&lt;span style=&quot;font-size: 15px;&quot;&gt;&lt;b&gt;indice = -1&lt;/b&gt;&lt;/span&gt;&lt;/font&gt;" style="text;strokeColor=none;align=center;fillColor=none;html=1;verticalAlign=middle;whiteSpace=wrap;rounded=0;fontFamily=Architects Daughter;fontSource=https://fonts.googleapis.com/css?family=Architects+Daughter;container=0;" vertex="1" parent="2o_OjBHsZXvBOZo_V1j--97">
          <mxGeometry x="4.409999999999968" y="6" width="90" height="20" as="geometry" />
        </mxCell>
        <mxCell id="2o_OjBHsZXvBOZo_V1j--103" value="" style="line;strokeWidth=2;html=1;perimeter=backbonePerimeter;points=[];outlineConnect=0;hachureGap=4;fontFamily=Architects Daughter;fontSource=https://fonts.googleapis.com/css?family=Architects+Daughter;strokeColor=#000000;container=0;" vertex="1" parent="2o_OjBHsZXvBOZo_V1j--41">
          <mxGeometry x="304.34" y="254.54" width="35.66" height="10.93" as="geometry" />
        </mxCell>
        <mxCell id="2o_OjBHsZXvBOZo_V1j--104" value="" style="line;strokeWidth=2;html=1;perimeter=backbonePerimeter;points=[];outlineConnect=0;hachureGap=4;fontFamily=Architects Daughter;fontSource=https://fonts.googleapis.com/css?family=Architects+Daughter;strokeColor=#000000;container=0;" vertex="1" parent="2o_OjBHsZXvBOZo_V1j--41">
          <mxGeometry x="170" y="254.54" width="39.5" height="10.93" as="geometry" />
        </mxCell>
        <mxCell id="2o_OjBHsZXvBOZo_V1j--106" value="" style="line;strokeWidth=2;direction=south;html=1;hachureGap=4;fontFamily=Architects Daughter;fontSource=https://fonts.googleapis.com/css?family=Architects+Daughter;strokeColor=#000000;container=0;" vertex="1" parent="2o_OjBHsZXvBOZo_V1j--41">
          <mxGeometry x="166.55" y="260" width="10.93" height="30" as="geometry" />
        </mxCell>
        <mxCell id="2o_OjBHsZXvBOZo_V1j--98" value="" style="group;" vertex="1" connectable="0" parent="2o_OjBHsZXvBOZo_V1j--41">
          <mxGeometry x="120" y="290" width="150" height="30" as="geometry" />
        </mxCell>
        <mxCell id="2o_OjBHsZXvBOZo_V1j--101" value="" style="group;aspect=fixed;" vertex="1" connectable="0" parent="2o_OjBHsZXvBOZo_V1j--98">
          <mxGeometry width="100" height="30" as="geometry" />
        </mxCell>
        <mxCell id="2o_OjBHsZXvBOZo_V1j--99" value="" style="rounded=0;whiteSpace=wrap;html=1;labelBackgroundColor=none;strokeColor=#0f100e;strokeWidth=2;align=center;verticalAlign=middle;fontFamily=Helvetica;fontSize=12;fontColor=default;fillColor=#d5e8d4;container=0;" vertex="1" parent="2o_OjBHsZXvBOZo_V1j--101">
          <mxGeometry width="100" height="30" as="geometry" />
        </mxCell>
        <mxCell id="2o_OjBHsZXvBOZo_V1j--100" value="&lt;font color=&quot;#000000&quot; face=&quot;Comic Sans MS&quot;&gt;&lt;span style=&quot;font-size: 15px;&quot;&gt;&lt;b&gt;indice = x&lt;/b&gt;&lt;/span&gt;&lt;/font&gt;" style="text;strokeColor=none;align=center;fillColor=none;html=1;verticalAlign=middle;whiteSpace=wrap;rounded=0;fontFamily=Architects Daughter;fontSource=https://fonts.googleapis.com/css?family=Architects+Daughter;container=0;" vertex="1" parent="2o_OjBHsZXvBOZo_V1j--101">
          <mxGeometry x="5" y="5" width="90" height="20" as="geometry" />
        </mxCell>
        <mxCell id="2o_OjBHsZXvBOZo_V1j--107" value="" style="line;strokeWidth=2;direction=south;html=1;hachureGap=4;fontFamily=Architects Daughter;fontSource=https://fonts.googleapis.com/css?family=Architects+Daughter;strokeColor=#000000;container=0;" vertex="1" parent="2o_OjBHsZXvBOZo_V1j--41">
          <mxGeometry x="331.74" y="260" width="10.93" height="80" as="geometry" />
        </mxCell>
        <mxCell id="2o_OjBHsZXvBOZo_V1j--108" value="" style="line;strokeWidth=2;direction=south;html=1;hachureGap=4;fontFamily=Architects Daughter;fontSource=https://fonts.googleapis.com/css?family=Architects+Daughter;strokeColor=#000000;container=0;" vertex="1" parent="2o_OjBHsZXvBOZo_V1j--41">
          <mxGeometry x="167.55" y="320" width="10.93" height="20" as="geometry" />
        </mxCell>
        <mxCell id="2o_OjBHsZXvBOZo_V1j--105" value="" style="line;strokeWidth=2;html=1;perimeter=backbonePerimeter;points=[];outlineConnect=0;hachureGap=4;fontFamily=Architects Daughter;fontSource=https://fonts.googleapis.com/css?family=Architects+Daughter;strokeColor=#000000;container=0;" vertex="1" parent="2o_OjBHsZXvBOZo_V1j--41">
          <mxGeometry x="172" y="335.07" width="168" height="10.93" as="geometry" />
        </mxCell>
        <mxCell id="2o_OjBHsZXvBOZo_V1j--110" value="" style="line;strokeWidth=2;direction=south;html=1;hachureGap=4;fontFamily=Architects Daughter;fontSource=https://fonts.googleapis.com/css?family=Architects+Daughter;strokeColor=#000000;container=0;" vertex="1" parent="2o_OjBHsZXvBOZo_V1j--41">
          <mxGeometry x="250.65" y="340" width="10.93" height="30" as="geometry" />
        </mxCell>
        <mxCell id="2o_OjBHsZXvBOZo_V1j--79" value="" style="line;strokeWidth=2;html=1;perimeter=backbonePerimeter;points=[];outlineConnect=0;hachureGap=4;fontFamily=Architects Daughter;fontSource=https://fonts.googleapis.com/css?family=Architects+Daughter;strokeColor=#000000;container=0;" vertex="1" parent="2o_OjBHsZXvBOZo_V1j--41">
          <mxGeometry x="257.29" y="363" width="162.71" height="10.93" as="geometry" />
        </mxCell>
        <mxCell id="2o_OjBHsZXvBOZo_V1j--113" value="&lt;font size=&quot;1&quot; face=&quot;Comic Sans MS&quot; color=&quot;#000000&quot;&gt;&lt;b style=&quot;font-size: 15px;&quot;&gt;V&lt;/b&gt;&lt;/font&gt;" style="text;strokeColor=none;align=center;fillColor=none;html=1;verticalAlign=middle;whiteSpace=wrap;rounded=0;fontFamily=Architects Daughter;fontSource=https://fonts.googleapis.com/css?family=Architects+Daughter;container=0;" vertex="1" parent="2o_OjBHsZXvBOZo_V1j--41">
          <mxGeometry x="157.01" y="236" width="30" height="30" as="geometry" />
        </mxCell>
        <mxCell id="2o_OjBHsZXvBOZo_V1j--112" value="&lt;font size=&quot;1&quot; face=&quot;Comic Sans MS&quot; color=&quot;#000000&quot;&gt;&lt;b style=&quot;font-size: 15px;&quot;&gt;F&lt;/b&gt;&lt;/font&gt;" style="text;strokeColor=none;align=center;fillColor=none;html=1;verticalAlign=middle;whiteSpace=wrap;rounded=0;fontFamily=Architects Daughter;fontSource=https://fonts.googleapis.com/css?family=Architects+Daughter;container=0;" vertex="1" parent="2o_OjBHsZXvBOZo_V1j--41">
          <mxGeometry x="318" y="236" width="30" height="30" as="geometry" />
        </mxCell>
        <mxCell id="2o_OjBHsZXvBOZo_V1j--84" value="" style="line;strokeWidth=2;direction=south;html=1;hachureGap=4;fontFamily=Architects Daughter;fontSource=https://fonts.googleapis.com/css?family=Architects+Daughter;strokeColor=#000000;container=0;" vertex="1" parent="2o_OjBHsZXvBOZo_V1j--114">
          <mxGeometry x="299.80999999999995" y="412.5799999999999" width="10.93" height="35.42" as="geometry" />
        </mxCell>
        <mxCell id="2o_OjBHsZXvBOZo_V1j--117" value="" style="line;strokeWidth=2;html=1;perimeter=backbonePerimeter;points=[];outlineConnect=0;hachureGap=4;fontFamily=Architects Daughter;fontSource=https://fonts.googleapis.com/css?family=Architects+Daughter;strokeColor=#000000;container=0;" vertex="1" parent="2o_OjBHsZXvBOZo_V1j--143">
          <mxGeometry x="191" y="1079.07" width="60.05" height="10.93" as="geometry" />
        </mxCell>
        <mxCell id="2o_OjBHsZXvBOZo_V1j--121" value="" style="line;strokeWidth=2;direction=south;html=1;hachureGap=4;fontFamily=Architects Daughter;fontSource=https://fonts.googleapis.com/css?family=Architects+Daughter;strokeColor=#000000;container=0;" vertex="1" parent="2o_OjBHsZXvBOZo_V1j--143">
          <mxGeometry x="186" y="1170" width="10.93" height="40" as="geometry" />
        </mxCell>
        <mxCell id="2o_OjBHsZXvBOZo_V1j--122" value="" style="line;strokeWidth=2;html=1;perimeter=backbonePerimeter;points=[];outlineConnect=0;hachureGap=4;fontFamily=Architects Daughter;fontSource=https://fonts.googleapis.com/css?family=Architects+Daughter;strokeColor=#000000;container=0;" vertex="1" parent="2o_OjBHsZXvBOZo_V1j--143">
          <mxGeometry x="189.93" y="1204" width="221.07" height="10.93" as="geometry" />
        </mxCell>
        <mxCell id="2o_OjBHsZXvBOZo_V1j--125" value="" style="line;strokeWidth=2;direction=south;html=1;hachureGap=4;fontFamily=Architects Daughter;fontSource=https://fonts.googleapis.com/css?family=Architects+Daughter;strokeColor=#000000;container=0;" vertex="1" parent="2o_OjBHsZXvBOZo_V1j--143">
          <mxGeometry x="401.34" y="1180" width="10.93" height="30" as="geometry" />
        </mxCell>
        <mxCell id="2o_OjBHsZXvBOZo_V1j--130" value="&lt;font size=&quot;1&quot; face=&quot;Comic Sans MS&quot; color=&quot;#000000&quot;&gt;&lt;b style=&quot;font-size: 15px;&quot;&gt;V&lt;/b&gt;&lt;/font&gt;" style="text;strokeColor=none;align=center;fillColor=none;html=1;verticalAlign=middle;whiteSpace=wrap;rounded=0;fontFamily=Architects Daughter;fontSource=https://fonts.googleapis.com/css?family=Architects+Daughter;container=0;" vertex="1" parent="2o_OjBHsZXvBOZo_V1j--143">
          <mxGeometry x="180.45999999999998" y="1058.9979428571428" width="30" height="30" as="geometry" />
        </mxCell>
        <mxCell id="2o_OjBHsZXvBOZo_V1j--131" value="&lt;font size=&quot;1&quot; face=&quot;Comic Sans MS&quot; color=&quot;#000000&quot;&gt;&lt;b style=&quot;font-size: 15px;&quot;&gt;F&lt;/b&gt;&lt;/font&gt;" style="text;strokeColor=none;align=center;fillColor=none;html=1;verticalAlign=middle;whiteSpace=wrap;rounded=0;fontFamily=Architects Daughter;fontSource=https://fonts.googleapis.com/css?family=Architects+Daughter;container=0;" vertex="1" parent="2o_OjBHsZXvBOZo_V1j--143">
          <mxGeometry x="390.80999999999995" y="1058.9979428571428" width="30" height="30" as="geometry" />
        </mxCell>
        <mxCell id="2o_OjBHsZXvBOZo_V1j--132" value="" style="group;aspect=fixed;" vertex="1" connectable="0" parent="2o_OjBHsZXvBOZo_V1j--143">
          <mxGeometry x="251.04999999999995" y="1039" width="106.98000000000002" height="90" as="geometry" />
        </mxCell>
        <mxCell id="2o_OjBHsZXvBOZo_V1j--123" value="" style="rhombus;whiteSpace=wrap;html=1;rounded=0;labelBackgroundColor=none;strokeColor=#0F140C;strokeWidth=2;align=center;verticalAlign=middle;fontFamily=Helvetica;fontSize=12;fontColor=default;fillColor=#d5e8d4;container=0;" vertex="1" parent="2o_OjBHsZXvBOZo_V1j--132">
          <mxGeometry width="106.98" height="90" as="geometry" />
        </mxCell>
        <mxCell id="2o_OjBHsZXvBOZo_V1j--124" value="&lt;font face=&quot;Comic Sans MS&quot; color=&quot;#000000&quot;&gt;&lt;span style=&quot;font-size: 16px;&quot;&gt;&lt;b&gt;con == 0&lt;/b&gt;&lt;/span&gt;&lt;/font&gt;" style="text;strokeColor=none;align=center;fillColor=none;html=1;verticalAlign=middle;whiteSpace=wrap;rounded=0;fontFamily=Architects Daughter;fontSource=https://fonts.googleapis.com/css?family=Architects+Daughter;container=0;" vertex="1" parent="2o_OjBHsZXvBOZo_V1j--132">
          <mxGeometry x="2" y="27.75" width="102.51" height="36.49" as="geometry" />
        </mxCell>
        <mxCell id="2o_OjBHsZXvBOZo_V1j--133" value="" style="group;aspect=fixed;" vertex="1" connectable="0" parent="2o_OjBHsZXvBOZo_V1j--143">
          <mxGeometry x="101" y="1129" width="180" height="50.99794285714279" as="geometry" />
        </mxCell>
        <mxCell id="2o_OjBHsZXvBOZo_V1j--54" value="" style="shape=trapezoid;perimeter=trapezoidPerimeter;whiteSpace=wrap;html=1;fixedSize=1;rounded=0;labelBackgroundColor=none;strokeColor=#0F140C;strokeWidth=2;align=center;verticalAlign=middle;fontFamily=Helvetica;fontSize=12;fontColor=default;fillColor=#d5e8d4;container=0;" vertex="1" parent="2o_OjBHsZXvBOZo_V1j--133">
          <mxGeometry width="180" height="46.3" as="geometry" />
        </mxCell>
        <mxCell id="2o_OjBHsZXvBOZo_V1j--127" value="&lt;font face=&quot;Comic Sans MS&quot; color=&quot;#000000&quot;&gt;&lt;span style=&quot;font-size: 15px;&quot;&gt;&lt;b&gt;&quot;Valor Indice: &quot;,&lt;/b&gt;&lt;/span&gt;&lt;/font&gt;&lt;div&gt;&lt;font face=&quot;Comic Sans MS&quot; color=&quot;#000000&quot;&gt;&lt;span style=&quot;font-size: 15px;&quot;&gt;&lt;b&gt;indice&lt;/b&gt;&lt;/span&gt;&lt;/font&gt;&lt;/div&gt;" style="text;strokeColor=none;align=center;fillColor=none;html=1;verticalAlign=middle;whiteSpace=wrap;rounded=0;fontFamily=Architects Daughter;fontSource=https://fonts.googleapis.com/css?family=Architects+Daughter;container=0;" vertex="1" parent="2o_OjBHsZXvBOZo_V1j--133">
          <mxGeometry x="31.090000000000032" y="0.9979428571427889" width="124.05" height="50" as="geometry" />
        </mxCell>
        <mxCell id="2o_OjBHsZXvBOZo_V1j--135" value="" style="group;aspect=fixed;" vertex="1" connectable="0" parent="2o_OjBHsZXvBOZo_V1j--143">
          <mxGeometry x="320.23" y="1132" width="190" height="51" as="geometry" />
        </mxCell>
        <mxCell id="2o_OjBHsZXvBOZo_V1j--136" value="" style="shape=trapezoid;perimeter=trapezoidPerimeter;whiteSpace=wrap;html=1;fixedSize=1;rounded=0;labelBackgroundColor=none;strokeColor=#0F140C;strokeWidth=2;align=center;verticalAlign=middle;fontFamily=Helvetica;fontSize=12;fontColor=default;fillColor=#d5e8d4;container=0;" vertex="1" parent="2o_OjBHsZXvBOZo_V1j--135">
          <mxGeometry width="180" height="46.3" as="geometry" />
        </mxCell>
        <mxCell id="2o_OjBHsZXvBOZo_V1j--137" value="&lt;font style=&quot;font-size: 13px;&quot;&gt;&lt;font style=&quot;font-size: 13px;&quot; face=&quot;Comic Sans MS&quot; color=&quot;#000000&quot;&gt;&lt;b style=&quot;&quot;&gt;&quot;Número indice vector &quot;,&amp;nbsp;&lt;/b&gt;&lt;/font&gt;&lt;b style=&quot;color: rgb(0, 0, 0); font-family: &amp;quot;Comic Sans MS&amp;quot;; background-color: initial;&quot;&gt;indice&lt;/b&gt;&lt;/font&gt;" style="text;strokeColor=none;align=center;fillColor=none;html=1;verticalAlign=middle;whiteSpace=wrap;rounded=0;fontFamily=Architects Daughter;fontSource=https://fonts.googleapis.com/css?family=Architects+Daughter;container=0;" vertex="1" parent="2o_OjBHsZXvBOZo_V1j--135">
          <mxGeometry x="10.549999999999955" y="1" width="158.91" height="50" as="geometry" />
        </mxCell>
        <mxCell id="2o_OjBHsZXvBOZo_V1j--138" value="" style="line;strokeWidth=2;direction=south;html=1;hachureGap=4;fontFamily=Architects Daughter;fontSource=https://fonts.googleapis.com/css?family=Architects+Daughter;strokeColor=#000000;container=0;" vertex="1" parent="2o_OjBHsZXvBOZo_V1j--143">
          <mxGeometry x="188" y="1083.05" width="10.93" height="45.95" as="geometry" />
        </mxCell>
        <mxCell id="2o_OjBHsZXvBOZo_V1j--139" value="" style="line;strokeWidth=2;direction=south;html=1;hachureGap=4;fontFamily=Architects Daughter;fontSource=https://fonts.googleapis.com/css?family=Architects+Daughter;strokeColor=#000000;container=0;" vertex="1" parent="2o_OjBHsZXvBOZo_V1j--143">
          <mxGeometry x="295" y="1210" width="10.93" height="35.42" as="geometry" />
        </mxCell>
        <mxCell id="2o_OjBHsZXvBOZo_V1j--140" value="" style="group;aspect=fixed;" vertex="1" connectable="0" parent="2o_OjBHsZXvBOZo_V1j--143">
          <mxGeometry x="275.46" y="1245.42" width="50" height="50" as="geometry" />
        </mxCell>
        <mxCell id="2o_OjBHsZXvBOZo_V1j--141" value="" style="strokeWidth=2;html=1;shape=mxgraph.flowchart.start_2;whiteSpace=wrap;rounded=0;labelBackgroundColor=none;strokeColor=#000000;align=center;verticalAlign=middle;fontFamily=Helvetica;fontSize=12;fontColor=default;fillColor=#d5e8d4;" vertex="1" parent="2o_OjBHsZXvBOZo_V1j--140">
          <mxGeometry width="50" height="50" as="geometry" />
        </mxCell>
        <mxCell id="2o_OjBHsZXvBOZo_V1j--142" value="&lt;b&gt;&lt;font color=&quot;#000000&quot; style=&quot;font-size: 19px;&quot; face=&quot;Comic Sans MS&quot;&gt;F&lt;/font&gt;&lt;/b&gt;" style="text;strokeColor=none;align=center;fillColor=none;html=1;verticalAlign=middle;whiteSpace=wrap;rounded=0;fontFamily=Architects Daughter;fontSource=https://fonts.googleapis.com/css?family=Architects+Daughter;" vertex="1" parent="2o_OjBHsZXvBOZo_V1j--140">
          <mxGeometry x="5" y="10" width="40" height="30" as="geometry" />
        </mxCell>
      </root>
    </mxGraphModel>
  </diagram>
</mxfile>
